<svg width="97" height="89" viewBox="0 0 97 89" fill="none" xmlns="http://www.w3.org/2000/svg">
<path d="M87.8 9.18994C82.5493 3.94136 75.4291 0.99292 68.005 0.99292C60.5809 0.99292 53.4607 3.94136 48.21 9.18994L48 9.38994L47.8 9.18994C42.5376 4.03404 35.4551 1.15992 28.0879 1.19061C20.7207 1.22131 13.6624 4.15434 8.44308 9.35391C3.22377 14.5535 0.264019 21.6006 0.205416 28.9676C0.146813 36.3347 2.99408 43.428 8.13001 48.7099L45.13 87.7099C45.5038 88.1049 45.9542 88.4194 46.4537 88.6344C46.9532 88.8493 47.4912 88.9602 48.035 88.9602C48.5788 88.9602 49.1168 88.8493 49.6163 88.6344C50.1158 88.4194 50.5662 88.1049 50.94 87.7099L87.8 48.7899C90.4004 46.1899 92.4631 43.103 93.8704 39.7057C95.2777 36.3084 96.002 32.6672 96.002 28.9899C96.002 25.3127 95.2777 21.6714 93.8704 18.2741C92.4631 14.8768 90.4004 11.79 87.8 9.18994V9.18994ZM82.07 43.1899L48 79.1799L13.86 43.1799C10.1032 39.4285 7.99057 34.3382 7.98682 29.0291C7.98307 23.7199 10.0885 18.6267 13.84 14.8699C17.5915 11.1132 22.6817 9.0005 27.9909 8.99675C33.3 8.993 38.3932 11.0985 42.15 14.8499L45.15 17.8499C45.8999 18.598 46.9158 19.0181 47.975 19.0181C49.0342 19.0181 50.0501 18.598 50.8 17.8499L53.8 14.8499C57.5608 11.1011 62.6567 8.99977 67.9668 9.00821C73.2769 9.01665 78.3662 11.1342 82.115 14.8949C85.8638 18.6557 87.9652 23.7517 87.9567 29.0618C87.9483 34.3719 85.8308 39.4611 82.07 43.2099V43.1899Z" fill="#868686"/>
</svg>
