<svg width="109" height="135" viewBox="0 0 109 135" fill="none" xmlns="http://www.w3.org/2000/svg">
<path d="M24.5547 26.9869L13.004 27.1804C11.8022 27.1961 10.6501 27.6623 9.77521 28.4863C8.90031 29.3103 8.36629 30.4326 8.27865 31.6312L0.01562 129.812C-0.0380112 130.476 0.0468131 131.143 0.264706 131.772C0.482599 132.4 0.828804 132.977 1.28135 133.464C1.7339 133.952 2.2829 134.341 2.89353 134.605C3.50415 134.869 4.16306 135.004 4.82844 135H103.96C104.622 135.003 105.277 134.87 105.885 134.608C106.493 134.346 107.04 133.961 107.492 133.477C107.944 132.993 108.291 132.422 108.512 131.797C108.732 131.173 108.821 130.51 108.773 129.85L101.31 31.6253C101.221 30.4181 100.68 29.2886 99.7948 28.4634C98.9093 27.6382 97.7448 27.1776 96.5344 27.1745C95.4861 27.1745 88.1433 27.1507 84.2711 27.1265C84.3604 27.5707 84.4024 28.0229 84.3962 28.476C84.402 28.634 84.402 28.7919 84.3962 28.9499V36.776C86.4273 36.7873 90.8607 36.7998 92.0967 36.8239L98.8096 125.418H10.0288L17.4918 36.7368L24.2547 36.6401V36.6881C24.2731 36.6876 24.3735 36.6886 24.3921 36.6881V29.15C24.3807 28.9292 24.3807 28.7086 24.3921 28.4878C24.3879 27.9872 24.4425 27.4873 24.5547 26.9995L24.5547 26.9869ZM65.5574 27.06C54.557 27.0116 45.5158 27.05 37.3305 27.0836C37.2933 27.5529 37.1931 28.0034 37.1931 28.4848C37.199 28.6428 37.199 28.8008 37.1931 28.9588V36.6719C48.0059 36.6477 58.2436 36.6478 71.5954 36.7199V28.4826C71.5954 28.0012 71.495 27.5507 71.458 27.0814C68.8013 27.0705 68.3646 27.0665 65.5576 27.0578L65.5574 27.06Z" fill="#868686"/>
<path d="M54.3719 0C38.7288 0 25.9763 12.8189 25.9763 28.49C25.9461 29.1386 26.0478 29.7865 26.2751 30.3947C26.5025 31.0028 26.8508 31.5587 27.2991 32.0284C27.7474 32.4981 28.2863 32.8722 28.8832 33.1276C29.4801 33.3831 30.1227 33.5145 30.7719 33.5145C31.4212 33.5145 32.0637 33.3831 32.6606 33.1276C33.2575 32.8722 33.7964 32.4981 34.2447 32.0284C34.693 31.5587 35.0414 31.0028 35.2687 30.3947C35.4961 29.7865 35.5977 29.1386 35.5675 28.49C35.5675 17.9889 43.9359 9.59118 54.3719 9.59118C64.8078 9.59118 73.2235 17.9889 73.2235 28.49C73.1933 29.1386 73.2949 29.7865 73.5223 30.3947C73.7496 31.0028 74.098 31.5587 74.5463 32.0284C74.9946 32.4981 75.5335 32.8722 76.1304 33.1276C76.7273 33.3831 77.3698 33.5145 78.0191 33.5145C78.6684 33.5145 79.3109 33.3831 79.9078 33.1276C80.5047 32.8722 81.0436 32.4981 81.4919 32.0284C81.9402 31.5587 82.2885 31.0028 82.5159 30.3947C82.7433 29.7865 82.8449 29.1386 82.8147 28.49C82.8147 12.8189 70.015 0 54.3719 0V0Z" fill="#868686"/>
<path d="M30.2286 23.6245C29.0412 23.7609 27.9473 24.3353 27.1609 25.2354C26.3745 26.1354 25.9521 27.2961 25.9763 28.491V44.0826C25.9461 44.7311 26.0478 45.3791 26.2751 45.9872C26.5025 46.5954 26.8508 47.1513 27.2991 47.6209C27.7474 48.0906 28.2863 48.464 28.8832 48.7194C29.4801 48.9749 30.1227 49.107 30.7719 49.107C31.4212 49.107 32.0637 48.9749 32.6606 48.7194C33.2575 48.464 33.7964 48.0906 34.2447 47.6209C34.693 47.1513 35.0414 46.5954 35.2687 45.9872C35.4961 45.3791 35.5977 44.7311 35.5675 44.0826V28.491C35.5812 27.8071 35.4486 27.1285 35.1786 26.5C34.9086 25.8715 34.5073 25.3079 34.0018 24.8471C33.4963 24.3862 32.8981 24.0384 32.2473 23.8276C31.5966 23.6167 30.9083 23.5477 30.2286 23.6245V23.6245Z" fill="#868686"/>
<path d="M77.4759 23.6245C76.2885 23.7609 75.1947 24.3353 74.4083 25.2354C73.6219 26.1354 73.1995 27.2961 73.2237 28.491V43.7991C73.1934 44.4476 73.2951 45.0956 73.5224 45.7037C73.7498 46.3119 74.0982 46.8678 74.5464 47.3375C74.9947 47.8071 75.5336 48.1805 76.1305 48.4359C76.7275 48.6914 77.37 48.8235 78.0192 48.8235C78.6685 48.8235 79.311 48.6914 79.9079 48.4359C80.5048 48.1805 81.0437 47.8071 81.492 47.3375C81.9403 46.8678 82.2887 46.3119 82.516 45.7037C82.7434 45.0956 82.8451 44.4476 82.8148 43.7991V28.491C82.8285 27.8071 82.6959 27.1285 82.4259 26.5C82.1559 25.8715 81.7547 25.3079 81.2491 24.8471C80.7436 24.3862 80.1454 24.0384 79.4947 23.8276C78.8439 23.6167 78.1556 23.5477 77.4759 23.6245V23.6245Z" fill="#868686"/>
</svg>
